<?xml version="1.0" encoding="utf-8"?>
<!-- Generator: Adobe Illustrator 25.4.1, SVG Export Plug-In . SVG Version: 6.00 Build 0)  -->
<svg version="1.1" id="Layer_1" xmlns="http://www.w3.org/2000/svg" xmlns:xlink="http://www.w3.org/1999/xlink" x="0px" y="0px" viewBox="0 0 500 500" style="enable-background:new 0 0 500 500;" xml:space="preserve">
  <style type="text/css">
	.st0{fill:#003662;}
	.st1{fill:none;}
</style>
  <g>
    <path class="st0" d="M230.2,258.5h-22.6v5.2h0.7l0,0c0.2-0.7,1.5-2.2,3.1-2.2c0,0,4.8,0,5,0c0,0.2,0,26.5,0,26.5h5
		c0,0,0-26.3,0-26.5c0.2,0,5.2,0,5.2,0c1.7,0,2.8,0.9,3,1.9v0.2h0.7L230.2,258.5L230.2,258.5L230.2,258.5z" />
    <path class="st0" d="M82.9,256.9L82.9,256.9L82.9,256.9c-3.3,3.3-5.2,8.1-5.2,12.8c0,5.4,2.2,10.2,5.9,13.5
		c3.7,3.3,8.7,5.2,13.9,5.2c2.8,0,8.1-0.6,13.5-3.7l0.2-0.2l0.6-7.4l-0.9-0.2l-0.2,0.4c-3.9,8-9.8,8-12.2,8
		c-10.2,0-14.8-8.5-14.8-16.3c0-7.6,4.6-15.4,14.8-15.4c3.1,0,8.9,1.1,11.9,8l0.2,0.4l0.9-0.4l-0.4-7.6l-0.2-0.2
		c-4.8-2-8.7-3-12.6-3C92,250.9,86.6,253,82.9,256.9z" />
    <path class="st0" d="M116.8,258.5L116.8,258.5l-0.2,0.7l0,0c0.4,0.2,0.9,1.3,0.9,2.6v25.9h4.8c0,0,0-13.2,0-13.3c0.2,0,2,0,2,0
		c1.9,0.2,2.6,1.3,3.7,3l0.2,0.2l0.6,1.1c1.1,1.7,2.4,4.1,3.9,6.3c1.1,1.7,2.4,2.4,4.1,2.8c1.1,0.2,3.5,0.2,4.4-0.2l1.1-0.2l0.4-0.2
		l-1.5-0.4c-0.6-0.2-1.5-0.6-2.8-2c-0.7-0.9-2-3-3.9-5.9l-1.9-3l0,0c-0.6-0.7-1.3-1.9-2.8-2.8c2.8-0.9,5.4-3.3,5.4-7
		c0-1.1-0.2-3.1-2-4.8c-1.9-1.7-4.6-2.6-8.5-2.6L116.8,258.5L116.8,258.5z M125.2,261.3c5,0.2,5.2,4.4,5.2,5c0,4.3-3.1,5.7-5.7,5.7
		c0,0-1.7,0-2,0c0-0.2,0-10.4,0-10.6C123.1,261.3,124.1,261.1,125.2,261.3z" />
    <path class="st0" d="M166.7,258.5L166.7,258.5v0.7l0,0c0.4,0.2,0.7,1.3,0.7,2.2v26.3h8.3c5.6,0,10-1.7,13.2-5
		c2.6-2.8,4.1-6.3,4.1-10.2c0-2.2-0.7-5.7-3-8.5c-3-3.7-7.4-5.7-13.5-5.7L166.7,258.5L166.7,258.5z M172.4,261.5c0.2,0,2.6,0,2.6,0
		c0.7,0,2.4,0,3.7,0.2c8.1,1.3,9.1,8.1,9.1,11.1c0,2.4-0.4,5.7-2.4,8.5c-2,2.6-5.2,3.9-9.4,3.9c-0.9,0-2.2,0-3.5,0
		C172.4,284.8,172.4,261.7,172.4,261.5z" />
    <path class="st0" d="M203.1,258.5h-5.7v0.7l0,0c0.6,0.2,0.9,1.3,0.9,2.4v26.1h4.8V258.5L203.1,258.5L203.1,258.5z" />
    <path class="st0" d="M301.3,258.5h-5.7v0.7l0,0c0.6,0.2,0.9,1.3,0.9,2.4v26.1h4.8V258.5L301.3,258.5L301.3,258.5z" />
    <path class="st0" d="M160.4,258.5h-16.3l0.2,0.7l0,0c0.4,0.2,0.9,1.3,0.9,2.6v25.9h16.3l1.1-5.2l-0.7-0.2l-0.2,0.4
		c-1.3,2-2.8,2.4-7.4,2.4c-1.7,0-3.3-0.2-4.4-0.2c0-0.2,0-11.7,0-11.9c0.2,0,8.3,0,8.3,0v-2.8c0,0-8,0-8.3,0c0-0.2,0-8.9,0-9.1
		c0.2,0,6.7,0,6.7,0c1.5,0,3.1,1.5,3.3,2.4v0.2h0.7L160.4,258.5L160.4,258.5L160.4,258.5z" />
    <path class="st0" d="M369.3,258.5H353v0.7l0,0c0.4,0.2,0.9,1.1,0.9,2.6v25.9h16.3l1.1-5.2l-0.7-0.2l-0.2,0.4
		c-1.3,2-2.8,2.4-7.4,2.4c-1.7,0-3.3-0.2-4.4-0.2c0-0.2,0-11.7,0-11.9c0.2,0,8.3,0,8.3,0v-2.8c0,0-8,0-8.3,0c0-0.2,0-8.9,0-9.1
		c0.2,0,6.7,0,6.7,0c1.9,0,3.1,1.5,3.1,2.4v0.2h0.7L369.3,258.5L369.3,258.5L369.3,258.5z" />
    <path class="st0" d="M244.4,253.1c-1.7,1.3-3.7,3.5-3.9,7.4c0,0,0,0,0,0.2c0,4.6,3,7.2,7.8,9.6l0,0c0.2,0.2,0.6,0.4,1.9,0.9
		c4.1,2,6.9,3.5,6.9,7.6c0,1.5-0.6,3.5-2,5c-1.3,1.3-3,1.9-5,1.9c-6.1,0-8.3-5.4-8.9-7.8l-0.2-0.4l-1.1,0.2l0.4,7.6l0.6-0.2
		c2,1.1,5.2,3,10,3.1c3.3,0,6.7-1.3,9.1-3.7c2-2,3.1-4.6,3.1-7.4c0-6.1-4.4-8.5-9.1-10.9l-0.9-0.6c-4.8-2.4-7-3.9-7-6.9
		c0-2,1.7-5.4,5.7-5.4c4.8,0,7.4,3.7,8,5.9l0.2,0.4l1.1-0.2l-0.4-6.7l-0.2-0.2c-2.8-1.9-6.3-2.2-7.8-2.2
		C249.3,250.7,246.5,251.7,244.4,253.1z" />
    <path class="st0" d="M309.3,265.9L309.3,265.9c0,4.1,2.4,6.1,6.3,8.1l1.5,0.7c3.1,1.5,5.2,2.6,5.2,5.6c0,0.6-0.2,2.2-1.5,3.7
		c-0.9,0.9-2.2,1.5-3.9,1.3c-4.6,0-6.3-3.7-7-5.7l-0.2-0.4l-0.9,0.2l0.2,6.1l0.2,0.2c1.5,0.9,4.1,2.4,8,2.4c2.6,0,5.4-1.1,7.2-3
		c1.7-1.7,2.4-3.7,2.4-5.9c0-5.2-3.5-7-7.2-8.9l-0.7-0.4c-4.1-2-5.4-3-5.4-5.2c0-1.7,1.1-3.9,4.4-3.9c3.9,0,5.6,3,5.9,4.4l0.2,0.4
		l0.9-0.2l-0.4-5.4l-0.2-0.2c-2.2-1.5-5-1.7-6.1-1.7C313.9,258.3,309.3,260.9,309.3,265.9z" />
    <path class="st0" d="M331.1,265.9c0,4.1,2.4,6.1,6.3,8.1l1.5,0.7c3.1,1.5,5.2,2.6,5.2,5.6c0,0.6-0.2,2.2-1.5,3.7
		c-0.9,0.9-2.2,1.5-3.9,1.3c-4.6,0-6.3-3.7-7-5.7l-0.2-0.4l-0.9,0.2l0.2,6.1l0.2,0.2c1.5,0.9,4.1,2.4,8,2.4c2.6,0,5.4-1.1,7.2-3
		c1.7-1.7,2.4-3.7,2.4-5.9c0-5.2-3.5-7-7.2-8.9l-0.7-0.4c-4.1-2-5.4-3-5.4-5.2c0-0.9,0.4-2,1.1-2.8c0.7-0.7,1.9-1.1,3.1-1.1
		c3.9,0,5.6,3,5.9,4.4l0.2,0.4l0.9-0.2l-0.4-5.4l-0.2-0.2c-2.2-1.5-5-1.7-6.1-1.7C335.9,258.3,331.1,260.9,331.1,265.9z" />
    <path class="st0" d="M289.3,258.5h-3.9v0.7l0,0c0.2,0.2,0.7,0.6,0.7,2.4v16.7c0,3.1-1.1,7-6.9,7c-5.4,0-6.5-3.1-6.5-8v-18.9h-6.1
		v0.7l0,0c0.4,0.2,1.1,0.9,1.1,2.6v15.6c0,9.6,6.3,10.7,11.1,10.7c2.4,0,10-0.7,10-9.8L289.3,258.5L289.3,258.5z" />
    <g>
      <path class="st0" d="M411.3,250.2c3.5,1.1,7,2.6,10.9,4.8c-9.4-15.6-26.1-32.4-42.6-43.3c4.3,4.3,11.1,13.5,13,23.3
			C399.3,239.8,405.6,245,411.3,250.2z" />
      <path class="st0" d="M411.3,250.2c-8.1-2.6-15-2.8-20-2.2c1.9-4.3,2-8.7,1.3-13c-12.4-8.9-26.3-16.7-39.5-22.4
			c9.6,6.5,20.4,25.6,24.8,45.9c9.6-2.8,24.3-4.8,43.3,1.7C418.2,256.9,414.8,253.5,411.3,250.2z" />
      <path class="st1" d="M392.4,235c0.7,4.3,0.6,8.7-1.1,13c5.2-0.6,12-0.4,20,2.2C405.6,245,399.3,239.8,392.4,235z" />
    </g>
  </g>
</svg>